PathFileType	3	(X/Y/Z)	C:\Users\jcho911\Documents\Smart Splint MAP workflow\data\P09\mocap\P09EMGstatic01.trc
DataRate	CameraRate	NumFrames	NumMarkers	Units	OrigDataRate	OrigDataStartFrame	OrigNumFrames
200.0	200.0	7	37	mm	200.0	1	995	
Frame#	Time	LAS1			RAS1			LPS1			RPS1			RTH1			RTH2			RTH3			RLFC			RMFC			LTH1			LTH2			LTH3			LLFC			LMFC			LTB1			LTB2			LTB3			LLMAL			LMMAL			LToe			LMT1			LCAL			LMT5			RToe			RMT5			RMT1			RCAL			RTB1			RTB2			RTB3			RMMAL			RLMAL			T10			RACR1			CLAV			C7			LACR1			
		X1	Y1	Z1	X2	Y2	Z2	X3	Y3	Z3	X4	Y4	Z4	X5	Y5	Z5	X6	Y6	Z6	X7	Y7	Z7	X8	Y8	Z8	X9	Y9	Z9	X10	Y10	Z10	X11	Y11	Z11	X12	Y12	Z12	X13	Y13	Z13	X14	Y14	Z14	X15	Y15	Z15	X16	Y16	Z16	X17	Y17	Z17	X18	Y18	Z18	X19	Y19	Z19	X20	Y20	Z20	X21	Y21	Z21	X22	Y22	Z22	X23	Y23	Z23	X24	Y24	Z24	X25	Y25	Z25	X26	Y26	Z26	X27	Y27	Z27	X28	Y28	Z28	X29	Y29	Z29	X30	Y30	Z30	X31	Y31	Z31	X32	Y32	Z32	X33	Y33	Z33	X34	Y34	Z34	X35	Y35	Z35	X36	Y36	Z36	X37	Y37	Z37	
1	-0.005	331.18375	1040.2263	-819.15179	597.12891	1031.757	-818.91425	419.13806	1094.035	-635.45093	514.87341	1093.2743	-631.60931	674.802	781.2995	-725.62628	637.2254	680.70551	-797.85779	657.61426	611.11462	-691.24475	650.83405	525.01202	-697.30286	539.78198	511.54828	-723.3609	272.24442	685.48663	-740.50922	295.71112	759.25629	-823.14496	334.11832	625.13	-794.07495	297.62701	526.96454	-717.75861	398.71649	516.83484	-746.31311	271.86365	318.18515	-685.63617	273.29996	403.37949	-649.57782	295.95786	224.47215	-620.1676	287.00922	89.935143	-641.18134	372.612	90.099968	-681.80365	258.41443	29.727915	-851.17725	322.89935	24.190865	-818.0705	337.44479	40.776211	-588.67035	218.84146	27.80357	-768.62207	667.25751	33.400726	-841.41095	716.10309	29.746574	-769.00818	606.83533	25.418247	-809.49225	623.33167	48.521286	-579.56427	680.74878	326.89798	-624.92487	641.38879	403.28604	-720.97192	674.48334	205.87115	-660.10602	575.71899	94.87381	-660.56952	671.34589	84.257973	-635.07733	461.87143	1334.5713	-613.85889	689.47095	1523.6379	-713.79413	458.50952	1470.2958	-824.26746	473.88757	1587.707	-659.66901	238.14308	1533.4312	-737.40381
2	0	331.2352	1040.2051	-819.15088	597.12891	1031.757	-818.91425	419.13565	1094.0281	-635.44049	514.87415	1093.2769	-631.58051	674.82233	781.33142	-725.5777	637.20105	680.72363	-797.87695	657.59967	611.10712	-691.20239	650.86743	525.07507	-697.31458	539.77594	511.56848	-723.34589	272.2774	685.48541	-740.48029	295.71829	759.2616	-823.20306	334.11832	625.13	-794.07495	297.6239	526.96594	-717.78461	398.72571	516.85876	-746.34204	271.83871	318.18921	-685.63715	273.28595	403.39337	-649.60504	295.92529	224.4529	-620.19128	287.00323	89.951378	-641.17596	372.63501	90.103584	-681.83936	258.39932	29.72007	-851.18781	322.90121	24.214546	-818.06189	337.4455	40.7957	-588.67676	218.84146	27.80357	-768.62207	667.25677	33.402153	-841.40906	716.10077	29.743422	-769.01715	606.86993	25.414154	-809.51428	623.33325	48.521862	-579.56488	680.73682	326.89026	-624.91113	641.37018	403.26074	-720.93762	674.49664	205.86055	-660.14203	575.7207	94.875008	-660.57123	671.33588	84.222374	-635.07062	461.87143	1334.5713	-613.85889	689.47552	1523.668	-713.81061	458.54742	1470.3251	-824.29425	473.82568	1587.7189	-659.69446	238.12387	1533.4307	-737.42566
3	0.005	331.26312	1040.2064	-819.16565	597.13452	1031.7651	-818.94653	419.13565	1094.0281	-635.44189	514.86658	1093.3062	-631.58728	674.81995	781.34705	-725.61731	637.22852	680.70856	-797.85413	657.58899	611.09814	-691.21686	650.83893	525.06689	-697.25842	539.7547	511.57297	-723.38977	272.27588	685.46375	-740.47363	295.70877	759.27173	-823.13434	334.11832	625.13	-794.07495	297.6239	526.96594	-717.78461	398.77463	516.84692	-746.32391	271.82947	318.22763	-685.65662	273.28595	403.39337	-649.60504	295.92529	224.45291	-620.19128	287.00116	89.96505	-641.18243	372.60703	90.12674	-681.81409	258.3894	29.717012	-851.17072	322.87036	24.212997	-818.0896	337.4455	40.7957	-588.67676	218.85143	27.803837	-768.65393	667.25726	33.401833	-841.40973	716.10376	29.753897	-769.02844	606.83746	25.420923	-809.52032	623.33344	48.527386	-579.56958	680.71918	326.89731	-624.89044	641.38879	403.28598	-720.97192	674.50397	205.87103	-660.12524	575.72736	94.890015	-660.612	671.32697	84.268364	-635.06744	461.86295	1334.5328	-613.98981	689.43341	1523.7167	-713.81732	458.51105	1470.3363	-824.29089	473.83316	1587.7605	-659.6972	238.1033	1533.4159	-737.42664
4	0.01	331.24548	1040.2096	-819.21948	597.13495	1031.7471	-818.94861	419.13101	1094.0706	-635.47461	514.83429	1093.2966	-631.65247	674.8042	781.36877	-725.56244	637.2243	680.75171	-797.88562	657.59894	611.11938	-691.2254	650.87567	525.06628	-697.27612	539.74652	511.59186	-723.46155	272.24594	685.50555	-740.50574	295.67654	759.31598	-823.18933	334.12408	625.16937	-794.07233	297.65884	526.96027	-717.75775	398.71719	516.84821	-746.3255	271.81027	318.2149	-685.69189	273.27548	403.3941	-649.59149	295.9198	224.46504	-620.24683	287.02267	89.965218	-641.20825	372.61301	90.110664	-681.81757	258.40347	29.745363	-851.17841	322.85895	24.223248	-818.08557	337.4455	40.7957	-588.67676	218.75555	27.722252	-768.84515	667.276	33.414185	-841.40869	716.09747	29.771418	-769.00568	606.83496	25.425131	-809.5639	623.33875	48.539879	-579.59546	680.69849	326.91376	-624.91443	641.39423	403.30585	-720.96448	674.52106	205.88393	-660.12347	575.72449	94.866875	-660.58948	671.31183	84.231911	-635.04968	461.8356	1334.5363	-613.9245	689.38904	1523.7185	-713.84894	458.48138	1470.3384	-824.31012	473.82867	1587.7842	-659.69519	238.06999	1533.4175	-737.46606
5	0.015	331.22766	1040.2433	-819.22827	597.13403	1031.7495	-818.94775	419.13449	1094.0852	-635.46741	514.87067	1093.3292	-631.5304	674.78406	781.36969	-725.56183	637.25946	680.76025	-797.87988	657.59039	611.11694	-691.22449	650.86157	525.04803	-697.26111	539.7511	511.5885	-723.46277	272.27789	685.50372	-740.47913	295.67798	759.31378	-823.1814	334.11655	625.12988	-794.07245	297.65939	526.95953	-717.75824	398.80222	516.83868	-746.34058	271.77713	318.22394	-685.69739	273.28488	403.39374	-649.60797	295.91281	224.47246	-620.21362	286.99786	89.973648	-641.2085	372.6123	90.109924	-681.81616	258.41229	29.749462	-851.17548	322.86557	24.183176	-818.09296	337.41647	40.795284	-588.69928	218.847	27.816624	-768.63605	667.27832	33.415077	-841.40442	716.09955	29.766294	-768.99585	606.81079	25.419447	-809.53644	623.33405	48.53643	-579.59186	680.71417	326.9075	-624.91779	641.40814	403.29214	-720.95929	674.48248	205.87003	-660.08331	575.74084	94.87825	-660.60071	671.30627	84.251305	-635.07269	461.83817	1334.564	-613.92749	689.40466	1523.7096	-713.87708	458.47845	1470.3408	-824.3288	473.82376	1587.7834	-659.72461	238.04921	1533.3971	-737.49597
6	0.02	331.22345	1040.2047	-819.20349	597.13367	1031.7534	-818.94617	419.10892	1094.0939	-635.42126	514.88	1093.3519	-631.53406	674.78558	781.37238	-725.55859	637.22937	680.75165	-797.84119	657.57825	611.11176	-691.151	650.82507	525.05762	-697.25494	539.76892	511.59381	-723.40747	272.27734	685.48492	-740.47449	295.68134	759.29578	-823.18274	334.12225	625.15198	-794.07227	297.66003	526.95862	-717.75879	398.82776	516.84674	-746.31519	271.78024	318.25916	-685.6991	273.27991	403.40616	-649.59741	295.93457	224.48688	-620.20483	287.00595	89.976112	-641.17596	372.61319	90.100304	-681.80084	258.40268	29.746254	-851.17462	322.86469	24.214073	-818.10999	337.44864	40.804321	-588.66064	218.87332	27.827908	-768.66223	667.28992	33.444496	-841.41034	716.10187	29.771194	-768.98505	606.82623	25.434074	-809.53461	623.31384	48.539028	-579.57623	680.7179	326.95703	-624.9187	641.50482	403.10883	-720.91437	674.48297	205.8797	-660.09442	575.71442	94.884666	-660.60968	671.3125	84.245911	-635.05249	461.8696	1334.5446	-613.85553	689.37866	1523.712	-713.90979	458.47821	1470.3413	-824.32581	473.76285	1587.7833	-659.75031	238.04219	1533.3826	-737.46722
7	0.025	331.19571	1040.2228	-819.16949	597.09808	1031.7521	-818.94061	419.14194	1094.0924	-635.45868	514.88623	1093.3489	-631.48688	674.78473	781.36139	-725.56964	637.24823	680.75922	-797.85168	657.60187	611.12207	-691.19476	650.84027	525.06586	-697.24237	539.76831	511.56384	-723.42078	272.24481	685.50391	-740.51025	295.68036	759.29407	-823.17371	334.11389	625.12952	-794.06836	297.6593	526.96088	-717.75751	398.76715	516.83716	-746.25519	271.78891	318.20953	-685.67468	273.28143	403.36566	-649.58087	295.90829	224.47098	-620.22607	286.9913	89.997452	-641.1814	372.63681	90.104218	-681.83472	258.41785	29.764389	-851.16217	322.8642	24.181562	-818.09119	337.41751	40.802788	-588.68396	218.78615	27.739468	-768.83746	667.25745	33.433495	-841.41431	716.08661	29.727179	-769.00104	606.83569	25.399839	-809.50989	623.3183	48.536266	-579.58398	680.72772	326.88623	-624.92242	641.37689	403.29721	-720.9306	674.50623	205.87354	-660.13422	575.7337	94.903053	-660.61719	671.30139	84.248619	-635.08325	461.83786	1334.5634	-613.92853	689.36407	1523.7333	-713.9577	458.38126	1470.3502	-824.31653	473.76678	1587.7595	-659.75201	237.98334	1533.379	-737.46582
